<svg id="Layer_3" data-name="Layer 3" xmlns="http://www.w3.org/2000/svg" viewBox="0 0 680.53 162.05"><defs><style>.cls-1{fill:#595a5c;}.cls-2{fill:#4493c6;}.cls-3{fill:#f15e44;}.cls-4{fill:#2a3c90;}.cls-5{fill:#ef3824;}</style></defs><path class="cls-1" d="M424.94,423a21.93,21.93,0,0,1,13.47,21.1,23,23,0,0,1-3.5,12.72,22.24,22.24,0,0,1-10,8.32,37.2,37.2,0,0,1-15.28,2.89H396.32v18.25H381V420.11h28.66A36.86,36.86,0,0,1,424.94,423Zm-5.63,29.56c2.39-2,3.59-4.81,3.59-8.46s-1.2-6.58-3.59-8.56-5.9-3-10.5-3H396.32v23h12.49Q415.71,455.58,419.31,452.6Z" transform="translate(-159.74 -418.98)"/><path class="cls-1" d="M449.29,420.11h15.32v53.73h33.2v12.48H449.29Z" transform="translate(-159.74 -418.98)"/><path class="cls-1" d="M557.69,474v12.29H506.42V420.11h50v12.3H521.65v14.38h30.74V458.7H521.65V474Z" transform="translate(-159.74 -418.98)"/><path class="cls-1" d="M569.89,420.11H600A42.19,42.19,0,0,1,619,424.23a30.79,30.79,0,0,1,12.87,11.58,35.36,35.36,0,0,1,0,34.81A30.88,30.88,0,0,1,619,482.21,42.32,42.32,0,0,1,600,486.32H569.89Zm29.32,53.63q9.93,0,15.84-5.53t5.91-15q0-9.47-5.91-15t-15.84-5.53h-14v41.05Z" transform="translate(-159.74 -418.98)"/><path class="cls-1" d="M692.75,452.18h14V479a40,40,0,0,1-12.48,6.24A48.55,48.55,0,0,1,680,487.46a38.76,38.76,0,0,1-18.54-4.4,32.77,32.77,0,0,1-12.91-12.2,35.58,35.58,0,0,1,0-35.28,32.51,32.51,0,0,1,13-12.2,39.37,39.37,0,0,1,18.73-4.4,41,41,0,0,1,15.79,2.93A31.28,31.28,0,0,1,708,430.42l-9.84,9.08A22.75,22.75,0,0,0,681,432a23.31,23.31,0,0,0-11.25,2.65,18.87,18.87,0,0,0-7.66,7.47,22,22,0,0,0-2.75,11.07,21.79,21.79,0,0,0,2.75,11,19.31,19.31,0,0,0,7.61,7.52,22.53,22.53,0,0,0,11.11,2.69,24.84,24.84,0,0,0,11.92-2.83Z" transform="translate(-159.74 -418.98)"/><path class="cls-1" d="M772.2,474v12.29H720.94V420.11h50v12.3h-34.8v14.38h30.74V458.7H736.17V474Z" transform="translate(-159.74 -418.98)"/><path class="cls-1" d="M839.26,472.42H828.48v13.9H813.54v-13.9H777.88V462.11l31.21-42h16.08l-28.94,39.82H814V447.54h14.47v12.39h10.78Z" transform="translate(-159.74 -418.98)"/><path class="cls-1" d="M399.24,515.61V536.4h36.41V551H399.24v28.66H381V501h59.46v14.61Z" transform="translate(-159.74 -418.98)"/><path class="cls-1" d="M461.56,571.69q-9.39-9.32-9.38-26.63V501h18.2v43.38q0,21.14,17.54,21.13,8.54,0,13-5.11t4.5-16V501h18v44.06q0,17.31-9.38,26.63T487.8,581Q471,581,461.56,571.69Z" transform="translate(-159.74 -418.98)"/><path class="cls-1" d="M556.36,515.84H531.19V501h68.56v14.84H574.57v63.83H556.36Z" transform="translate(-159.74 -418.98)"/><path class="cls-1" d="M616.89,571.69q-9.39-9.32-9.39-26.63V501h18.21v43.38q0,21.14,17.53,21.13,8.55,0,13-5.11t4.5-16V501h18v44.06q0,17.31-9.39,26.63T643.13,581Q626.27,581,616.89,571.69Z" transform="translate(-159.74 -418.98)"/><path class="cls-1" d="M746.87,579.67l-15.18-21.91H715v21.91H696.74V501h34A43.81,43.81,0,0,1,749,504.48a27,27,0,0,1,11.85,9.89A27.28,27.28,0,0,1,765,529.55a25.64,25.64,0,0,1-16.18,24.84l17.64,25.28Zm-4.61-60.3q-4.28-3.52-12.48-3.53H715v27.42h14.83q8.21,0,12.48-3.6t4.27-10.11Q746.53,522.92,742.26,519.37Z" transform="translate(-159.74 -418.98)"/><path class="cls-1" d="M840.26,565.06v14.61H779.35V501H838.8v14.61H797.44v17.08H834v14.16H797.44v18.21Z" transform="translate(-159.74 -418.98)"/><path class="cls-2" d="M246.84,502.55v0L257.58,482l-20.11,11h0a6.9,6.9,0,0,0-1.81,1.31,7,7,0,1,0,11.15,8.3h0Z" transform="translate(-159.74 -418.98)"/><path class="cls-3" d="M234.62,530.72a31,31,0,0,1-26.44-26.28h-21a51.68,51.68,0,0,0,8.24,23.9,8.93,8.93,0,0,0-.72.66l-31.83,31.83A10.73,10.73,0,0,0,178.05,576l31.83-31.83c.23-.24.45-.48.66-.73a51.63,51.63,0,0,0,24.08,8.25Z" transform="translate(-159.74 -418.98)"/><path class="cls-4" d="M210.31,456.72a11.06,11.06,0,0,0-1.59-2.05L178.05,424a10.73,10.73,0,0,0-15.17,15.17l30.67,30.67a10.29,10.29,0,0,0,2,1.59,51.55,51.55,0,0,0-8.15,21.83H208.6a31,31,0,0,1,26-24v-21A51.4,51.4,0,0,0,210.31,456.72Z" transform="translate(-159.74 -418.98)"/><path class="cls-5" d="M314.87,560.83l-32.15-32.15a4.64,4.64,0,0,0-.4-.36,51.51,51.51,0,0,0,8.23-23.88h-21a31,31,0,0,1-23.78,25.79v21.18a51.6,51.6,0,0,0,21.4-8l.36.4L299.7,576a10.73,10.73,0,0,0,15.17-15.17Z" transform="translate(-159.74 -418.98)"/><path class="cls-2" d="M314.87,439.17A10.73,10.73,0,0,0,299.7,424l-30,30.05a10.74,10.74,0,0,0-2,2.79,51.58,51.58,0,0,0-21.86-8.25v21.18a31.06,31.06,0,0,1,23.36,23.49h21.16a51.62,51.62,0,0,0-8.28-22,10.85,10.85,0,0,0,2.8-2Z" transform="translate(-159.74 -418.98)"/></svg>
